<svg xmlns="http://www.w3.org/2000/svg" xmlns:xlink="http://www.w3.org/1999/xlink" width="988" height="988" viewBox="0 0 988 988"><defs><filter id="a" x="0" y="0" width="148" height="148" filterUnits="userSpaceOnUse"><feOffset dx="-3" dy="3" input="SourceAlpha"/><feGaussianBlur stdDeviation="5" result="b"/><feFlood flood-opacity="0.161"/><feComposite operator="in" in2="b"/><feComposite in="SourceGraphic"/></filter><filter id="c" x="0" y="168" width="148" height="148" filterUnits="userSpaceOnUse"><feOffset dx="-3" dy="3" input="SourceAlpha"/><feGaussianBlur stdDeviation="5" result="d"/><feFlood flood-opacity="0.161"/><feComposite operator="in" in2="d"/><feComposite in="SourceGraphic"/></filter><filter id="e" x="0" y="336" width="148" height="148" filterUnits="userSpaceOnUse"><feOffset dx="-3" dy="3" input="SourceAlpha"/><feGaussianBlur stdDeviation="5" result="f"/><feFlood flood-opacity="0.161"/><feComposite operator="in" in2="f"/><feComposite in="SourceGraphic"/></filter><filter id="g" x="0" y="504" width="148" height="148" filterUnits="userSpaceOnUse"><feOffset dx="-3" dy="3" input="SourceAlpha"/><feGaussianBlur stdDeviation="5" result="h"/><feFlood flood-opacity="0.161"/><feComposite operator="in" in2="h"/><feComposite in="SourceGraphic"/></filter><filter id="i" x="0" y="672" width="148" height="148" filterUnits="userSpaceOnUse"><feOffset dx="-3" dy="3" input="SourceAlpha"/><feGaussianBlur stdDeviation="5" result="j"/><feFlood flood-opacity="0.161"/><feComposite operator="in" in2="j"/><feComposite in="SourceGraphic"/></filter><filter id="k" x="0" y="840" width="148" height="148" filterUnits="userSpaceOnUse"><feOffset dx="-3" dy="3" input="SourceAlpha"/><feGaussianBlur stdDeviation="5" result="l"/><feFlood flood-opacity="0.161"/><feComposite operator="in" in2="l"/><feComposite in="SourceGraphic"/></filter><filter id="m" x="504" y="0" width="148" height="148" filterUnits="userSpaceOnUse"><feOffset dx="-3" dy="3" input="SourceAlpha"/><feGaussianBlur stdDeviation="5" result="n"/><feFlood flood-opacity="0.161"/><feComposite operator="in" in2="n"/><feComposite in="SourceGraphic"/></filter><filter id="o" x="504" y="168" width="148" height="148" filterUnits="userSpaceOnUse"><feOffset dx="-3" dy="3" input="SourceAlpha"/><feGaussianBlur stdDeviation="5" result="p"/><feFlood flood-opacity="0.161"/><feComposite operator="in" in2="p"/><feComposite in="SourceGraphic"/></filter><filter id="q" x="504" y="336" width="148" height="148" filterUnits="userSpaceOnUse"><feOffset dx="-3" dy="3" input="SourceAlpha"/><feGaussianBlur stdDeviation="5" result="r"/><feFlood flood-opacity="0.161"/><feComposite operator="in" in2="r"/><feComposite in="SourceGraphic"/></filter><filter id="s" x="504" y="504" width="148" height="148" filterUnits="userSpaceOnUse"><feOffset dx="-3" dy="3" input="SourceAlpha"/><feGaussianBlur stdDeviation="5" result="t"/><feFlood flood-opacity="0.161"/><feComposite operator="in" in2="t"/><feComposite in="SourceGraphic"/></filter><filter id="u" x="504" y="672" width="148" height="148" filterUnits="userSpaceOnUse"><feOffset dx="-3" dy="3" input="SourceAlpha"/><feGaussianBlur stdDeviation="5" result="v"/><feFlood flood-opacity="0.161"/><feComposite operator="in" in2="v"/><feComposite in="SourceGraphic"/></filter><filter id="w" x="504" y="840" width="148" height="148" filterUnits="userSpaceOnUse"><feOffset dx="-3" dy="3" input="SourceAlpha"/><feGaussianBlur stdDeviation="5" result="x"/><feFlood flood-opacity="0.161"/><feComposite operator="in" in2="x"/><feComposite in="SourceGraphic"/></filter><filter id="y" x="168" y="0" width="148" height="148" filterUnits="userSpaceOnUse"><feOffset dx="-3" dy="3" input="SourceAlpha"/><feGaussianBlur stdDeviation="5" result="z"/><feFlood flood-opacity="0.161"/><feComposite operator="in" in2="z"/><feComposite in="SourceGraphic"/></filter><filter id="aa" x="168" y="168" width="148" height="148" filterUnits="userSpaceOnUse"><feOffset dx="-3" dy="3" input="SourceAlpha"/><feGaussianBlur stdDeviation="5" result="ab"/><feFlood flood-opacity="0.161"/><feComposite operator="in" in2="ab"/><feComposite in="SourceGraphic"/></filter><filter id="ac" x="168" y="336" width="148" height="148" filterUnits="userSpaceOnUse"><feOffset dx="-3" dy="3" input="SourceAlpha"/><feGaussianBlur stdDeviation="5" result="ad"/><feFlood flood-opacity="0.161"/><feComposite operator="in" in2="ad"/><feComposite in="SourceGraphic"/></filter><filter id="ae" x="168" y="504" width="148" height="148" filterUnits="userSpaceOnUse"><feOffset dx="-3" dy="3" input="SourceAlpha"/><feGaussianBlur stdDeviation="5" result="af"/><feFlood flood-opacity="0.161"/><feComposite operator="in" in2="af"/><feComposite in="SourceGraphic"/></filter><filter id="ag" x="168" y="672" width="148" height="148" filterUnits="userSpaceOnUse"><feOffset dx="-3" dy="3" input="SourceAlpha"/><feGaussianBlur stdDeviation="5" result="ah"/><feFlood flood-opacity="0.161"/><feComposite operator="in" in2="ah"/><feComposite in="SourceGraphic"/></filter><filter id="ai" x="168" y="840" width="148" height="148" filterUnits="userSpaceOnUse"><feOffset dx="-3" dy="3" input="SourceAlpha"/><feGaussianBlur stdDeviation="5" result="aj"/><feFlood flood-opacity="0.161"/><feComposite operator="in" in2="aj"/><feComposite in="SourceGraphic"/></filter><filter id="ak" x="672" y="0" width="148" height="148" filterUnits="userSpaceOnUse"><feOffset dx="-3" dy="3" input="SourceAlpha"/><feGaussianBlur stdDeviation="5" result="al"/><feFlood flood-opacity="0.161"/><feComposite operator="in" in2="al"/><feComposite in="SourceGraphic"/></filter><filter id="am" x="672" y="168" width="148" height="148" filterUnits="userSpaceOnUse"><feOffset dx="-3" dy="3" input="SourceAlpha"/><feGaussianBlur stdDeviation="5" result="an"/><feFlood flood-opacity="0.161"/><feComposite operator="in" in2="an"/><feComposite in="SourceGraphic"/></filter><filter id="ao" x="672" y="336" width="148" height="148" filterUnits="userSpaceOnUse"><feOffset dx="-3" dy="3" input="SourceAlpha"/><feGaussianBlur stdDeviation="5" result="ap"/><feFlood flood-opacity="0.161"/><feComposite operator="in" in2="ap"/><feComposite in="SourceGraphic"/></filter><filter id="aq" x="672" y="504" width="148" height="148" filterUnits="userSpaceOnUse"><feOffset dx="-3" dy="3" input="SourceAlpha"/><feGaussianBlur stdDeviation="5" result="ar"/><feFlood flood-opacity="0.161"/><feComposite operator="in" in2="ar"/><feComposite in="SourceGraphic"/></filter><filter id="as" x="672" y="672" width="148" height="148" filterUnits="userSpaceOnUse"><feOffset dx="-3" dy="3" input="SourceAlpha"/><feGaussianBlur stdDeviation="5" result="at"/><feFlood flood-opacity="0.161"/><feComposite operator="in" in2="at"/><feComposite in="SourceGraphic"/></filter><filter id="au" x="672" y="840" width="148" height="148" filterUnits="userSpaceOnUse"><feOffset dx="-3" dy="3" input="SourceAlpha"/><feGaussianBlur stdDeviation="5" result="av"/><feFlood flood-opacity="0.161"/><feComposite operator="in" in2="av"/><feComposite in="SourceGraphic"/></filter><filter id="aw" x="336" y="0" width="148" height="148" filterUnits="userSpaceOnUse"><feOffset dx="-3" dy="3" input="SourceAlpha"/><feGaussianBlur stdDeviation="5" result="ax"/><feFlood flood-opacity="0.161"/><feComposite operator="in" in2="ax"/><feComposite in="SourceGraphic"/></filter><filter id="ay" x="336" y="168" width="148" height="148" filterUnits="userSpaceOnUse"><feOffset dx="-3" dy="3" input="SourceAlpha"/><feGaussianBlur stdDeviation="5" result="az"/><feFlood flood-opacity="0.161"/><feComposite operator="in" in2="az"/><feComposite in="SourceGraphic"/></filter><filter id="ba" x="336" y="336" width="148" height="148" filterUnits="userSpaceOnUse"><feOffset dx="-3" dy="3" input="SourceAlpha"/><feGaussianBlur stdDeviation="5" result="bb"/><feFlood flood-opacity="0.161"/><feComposite operator="in" in2="bb"/><feComposite in="SourceGraphic"/></filter><filter id="bc" x="336" y="504" width="148" height="148" filterUnits="userSpaceOnUse"><feOffset dx="-3" dy="3" input="SourceAlpha"/><feGaussianBlur stdDeviation="5" result="bd"/><feFlood flood-opacity="0.161"/><feComposite operator="in" in2="bd"/><feComposite in="SourceGraphic"/></filter><filter id="be" x="336" y="672" width="148" height="148" filterUnits="userSpaceOnUse"><feOffset dx="-3" dy="3" input="SourceAlpha"/><feGaussianBlur stdDeviation="5" result="bf"/><feFlood flood-opacity="0.161"/><feComposite operator="in" in2="bf"/><feComposite in="SourceGraphic"/></filter><filter id="bg" x="336" y="840" width="148" height="148" filterUnits="userSpaceOnUse"><feOffset dx="-3" dy="3" input="SourceAlpha"/><feGaussianBlur stdDeviation="5" result="bh"/><feFlood flood-opacity="0.161"/><feComposite operator="in" in2="bh"/><feComposite in="SourceGraphic"/></filter><filter id="bi" x="840" y="0" width="148" height="148" filterUnits="userSpaceOnUse"><feOffset dx="-3" dy="3" input="SourceAlpha"/><feGaussianBlur stdDeviation="5" result="bj"/><feFlood flood-opacity="0.161"/><feComposite operator="in" in2="bj"/><feComposite in="SourceGraphic"/></filter><filter id="bk" x="840" y="168" width="148" height="148" filterUnits="userSpaceOnUse"><feOffset dx="-3" dy="3" input="SourceAlpha"/><feGaussianBlur stdDeviation="5" result="bl"/><feFlood flood-opacity="0.161"/><feComposite operator="in" in2="bl"/><feComposite in="SourceGraphic"/></filter><filter id="bm" x="840" y="336" width="148" height="148" filterUnits="userSpaceOnUse"><feOffset dx="-3" dy="3" input="SourceAlpha"/><feGaussianBlur stdDeviation="5" result="bn"/><feFlood flood-opacity="0.161"/><feComposite operator="in" in2="bn"/><feComposite in="SourceGraphic"/></filter><filter id="bo" x="840" y="504" width="148" height="148" filterUnits="userSpaceOnUse"><feOffset dx="-3" dy="3" input="SourceAlpha"/><feGaussianBlur stdDeviation="5" result="bp"/><feFlood flood-opacity="0.161"/><feComposite operator="in" in2="bp"/><feComposite in="SourceGraphic"/></filter><filter id="bq" x="840" y="672" width="148" height="148" filterUnits="userSpaceOnUse"><feOffset dx="-3" dy="3" input="SourceAlpha"/><feGaussianBlur stdDeviation="5" result="br"/><feFlood flood-opacity="0.161"/><feComposite operator="in" in2="br"/><feComposite in="SourceGraphic"/></filter><filter id="bs" x="840" y="840" width="148" height="148" filterUnits="userSpaceOnUse"><feOffset dx="-3" dy="3" input="SourceAlpha"/><feGaussianBlur stdDeviation="5" result="bt"/><feFlood flood-opacity="0.161"/><feComposite operator="in" in2="bt"/><feComposite in="SourceGraphic"/></filter></defs><g transform="translate(-12 -1329)"><g transform="matrix(1, 0, 0, 1, 12, 1329)" filter="url(#a)"><circle cx="59" cy="59" r="59" transform="translate(18 12)" fill="#fff"/></g><g transform="matrix(1, 0, 0, 1, 12, 1329)" filter="url(#c)"><circle cx="59" cy="59" r="59" transform="translate(18 180)" fill="#fff"/></g><g transform="matrix(1, 0, 0, 1, 12, 1329)" filter="url(#e)"><circle cx="59" cy="59" r="59" transform="translate(18 348)" fill="#fff"/></g><g transform="matrix(1, 0, 0, 1, 12, 1329)" filter="url(#g)"><circle cx="59" cy="59" r="59" transform="translate(18 516)" fill="#fff"/></g><g transform="matrix(1, 0, 0, 1, 12, 1329)" filter="url(#i)"><circle cx="59" cy="59" r="59" transform="translate(18 684)" fill="#fff"/></g><g transform="matrix(1, 0, 0, 1, 12, 1329)" filter="url(#k)"><circle cx="59" cy="59" r="59" transform="translate(18 852)" fill="#fff"/></g><g transform="matrix(1, 0, 0, 1, 12, 1329)" filter="url(#m)"><circle cx="59" cy="59" r="59" transform="translate(522 12)" fill="#fff"/></g><g transform="matrix(1, 0, 0, 1, 12, 1329)" filter="url(#o)"><circle cx="59" cy="59" r="59" transform="translate(522 180)" fill="#fff"/></g><g transform="matrix(1, 0, 0, 1, 12, 1329)" filter="url(#q)"><circle cx="59" cy="59" r="59" transform="translate(522 348)" fill="#fff"/></g><g transform="matrix(1, 0, 0, 1, 12, 1329)" filter="url(#s)"><circle cx="59" cy="59" r="59" transform="translate(522 516)" fill="#fff"/></g><g transform="matrix(1, 0, 0, 1, 12, 1329)" filter="url(#u)"><circle cx="59" cy="59" r="59" transform="translate(522 684)" fill="#fff"/></g><g transform="matrix(1, 0, 0, 1, 12, 1329)" filter="url(#w)"><circle cx="59" cy="59" r="59" transform="translate(522 852)" fill="#fff"/></g><g transform="matrix(1, 0, 0, 1, 12, 1329)" filter="url(#y)"><circle cx="59" cy="59" r="59" transform="translate(186 12)" fill="#fff"/></g><g transform="matrix(1, 0, 0, 1, 12, 1329)" filter="url(#aa)"><circle cx="59" cy="59" r="59" transform="translate(186 180)" fill="#fff"/></g><g transform="matrix(1, 0, 0, 1, 12, 1329)" filter="url(#ac)"><circle cx="59" cy="59" r="59" transform="translate(186 348)" fill="#fff"/></g><g transform="matrix(1, 0, 0, 1, 12, 1329)" filter="url(#ae)"><circle cx="59" cy="59" r="59" transform="translate(186 516)" fill="#fff"/></g><g transform="matrix(1, 0, 0, 1, 12, 1329)" filter="url(#ag)"><circle cx="59" cy="59" r="59" transform="translate(186 684)" fill="#fff"/></g><g transform="matrix(1, 0, 0, 1, 12, 1329)" filter="url(#ai)"><circle cx="59" cy="59" r="59" transform="translate(186 852)" fill="#fff"/></g><g transform="matrix(1, 0, 0, 1, 12, 1329)" filter="url(#ak)"><circle cx="59" cy="59" r="59" transform="translate(690 12)" fill="#fff"/></g><g transform="matrix(1, 0, 0, 1, 12, 1329)" filter="url(#am)"><circle cx="59" cy="59" r="59" transform="translate(690 180)" fill="#fff"/></g><g transform="matrix(1, 0, 0, 1, 12, 1329)" filter="url(#ao)"><circle cx="59" cy="59" r="59" transform="translate(690 348)" fill="#fff"/></g><g transform="matrix(1, 0, 0, 1, 12, 1329)" filter="url(#aq)"><circle cx="59" cy="59" r="59" transform="translate(690 516)" fill="#fff"/></g><g transform="matrix(1, 0, 0, 1, 12, 1329)" filter="url(#as)"><circle cx="59" cy="59" r="59" transform="translate(690 684)" fill="#fff"/></g><g transform="matrix(1, 0, 0, 1, 12, 1329)" filter="url(#au)"><circle cx="59" cy="59" r="59" transform="translate(690 852)" fill="#fff"/></g><g transform="matrix(1, 0, 0, 1, 12, 1329)" filter="url(#aw)"><circle cx="59" cy="59" r="59" transform="translate(354 12)" fill="#fff"/></g><g transform="matrix(1, 0, 0, 1, 12, 1329)" filter="url(#ay)"><circle cx="59" cy="59" r="59" transform="translate(354 180)" fill="#fff"/></g><g transform="matrix(1, 0, 0, 1, 12, 1329)" filter="url(#ba)"><circle cx="59" cy="59" r="59" transform="translate(354 348)" fill="#fff"/></g><g transform="matrix(1, 0, 0, 1, 12, 1329)" filter="url(#bc)"><circle cx="59" cy="59" r="59" transform="translate(354 516)" fill="#fff"/></g><g transform="matrix(1, 0, 0, 1, 12, 1329)" filter="url(#be)"><circle cx="59" cy="59" r="59" transform="translate(354 684)" fill="#fff"/></g><g transform="matrix(1, 0, 0, 1, 12, 1329)" filter="url(#bg)"><circle cx="59" cy="59" r="59" transform="translate(354 852)" fill="#fff"/></g><g transform="matrix(1, 0, 0, 1, 12, 1329)" filter="url(#bi)"><circle cx="59" cy="59" r="59" transform="translate(858 12)" fill="#fff"/></g><g transform="matrix(1, 0, 0, 1, 12, 1329)" filter="url(#bk)"><circle cx="59" cy="59" r="59" transform="translate(858 180)" fill="#fff"/></g><g transform="matrix(1, 0, 0, 1, 12, 1329)" filter="url(#bm)"><circle cx="59" cy="59" r="59" transform="translate(858 348)" fill="#fff"/></g><g transform="matrix(1, 0, 0, 1, 12, 1329)" filter="url(#bo)"><circle cx="59" cy="59" r="59" transform="translate(858 516)" fill="#fff"/></g><g transform="matrix(1, 0, 0, 1, 12, 1329)" filter="url(#bq)"><circle cx="59" cy="59" r="59" transform="translate(858 684)" fill="#fff"/></g><g transform="matrix(1, 0, 0, 1, 12, 1329)" filter="url(#bs)"><circle cx="59" cy="59" r="59" transform="translate(858 852)" fill="#fff"/></g></g></svg>