<svg xmlns="http://www.w3.org/2000/svg" xmlns:xlink="http://www.w3.org/1999/xlink" viewBox="0 0 230 230"><defs><style>.cls-1{fill:none;}.cls-2{fill:url(#Unbenannter_Verlauf_2);}.cls-3{fill:url(#Unbenannter_Verlauf_387);}.cls-4{fill:url(#Unbenannter_Verlauf_387-2);}.cls-5{fill:url(#Unbenannter_Verlauf_387-3);}.cls-6{fill:#fcfdff;}</style><radialGradient id="Unbenannter_Verlauf_2" cx="116.24" cy="73.98" r="63.88" gradientUnits="userSpaceOnUse"><stop offset="0" stop-color="#6d9ff7"/><stop offset="0.22" stop-color="#6195f7"/><stop offset="0.48" stop-color="#4d86f6"/><stop offset="0.55" stop-color="#4d86f6"/><stop offset="0.73" stop-color="#4d86f6"/><stop offset="0.9" stop-color="#1b52c8"/><stop offset="1" stop-color="#1746a1"/></radialGradient><linearGradient id="Unbenannter_Verlauf_387" x1="115.13" y1="189.68" x2="114.9" y2="174.32" gradientUnits="userSpaceOnUse"><stop offset="0" stop-color="gray"/><stop offset="1" stop-color="#e5e5e5"/></linearGradient><linearGradient id="Unbenannter_Verlauf_387-2" x1="115" y1="200.39" x2="115" y2="187.29" xlink:href="#Unbenannter_Verlauf_387"/><linearGradient id="Unbenannter_Verlauf_387-3" x1="114.9" y1="221.97" x2="115.04" y2="199.38" xlink:href="#Unbenannter_Verlauf_387"/></defs><title>bulb-icon</title><g id="Ebene_2" data-name="Ebene 2"><g id="Ebene_1-2" data-name="Ebene 1"><rect class="cls-1" width="230" height="230"/><path class="cls-2" d="M167.77,42.9A59,59,0,0,0,142.84,18c-19-9.82-37.22-5.92-43.63-4.16C94.5,15.11,77.62,20,66,36.66A59,59,0,0,0,55.58,69.91c-.23,17.29,7.21,31.5,12.47,41.55,7.16,13.68,11.47,15.43,12.46,24.93,2,18.86,2.08,22.85,2.08,22.85a14.67,14.67,0,0,0,2.08,8.31c2.81,4.24,7.77,5.57,10.39,6.24,4.32,1.09,6.88.62,14.54,0,14.5-1.19,16-.37,22.85-2.08,9.45-2.34,11.61-5.15,12.47-6.24,2.08-2.63,1.79-5.22,2.08-10.38a111.75,111.75,0,0,1,4.15-22.86c2.36-7.92,5.11-9.4,10.39-18.69C165,107.45,172.42,94.39,174,78.22,174.57,72.44,175.77,58.19,167.77,42.9Z"/><rect class="cls-3" x="89.03" y="176.9" width="51.94" height="8.31" rx="2"/><rect class="cls-4" x="89.03" y="189.37" width="51.94" height="8.31" rx="2"/><path class="cls-5" d="M135.78,206a4.18,4.18,0,0,1-4.16,4.15h-5.19a8.3,8.3,0,0,1-8.31,8.31h-6.23a8.3,8.3,0,0,1-8.31-8.31h-5.2a4.16,4.16,0,0,1-2.95-7.08,4.08,4.08,0,0,1,2.95-1.23h33.24A4.17,4.17,0,0,1,135.78,206Z"/><path class="cls-6" d="M137.26,90.07a11.62,11.62,0,0,0,5.62-2.24,8.11,8.11,0,0,0,3.53-5.53c.23-2.44-1-5.36-3.27-5.82s-4.76,1.74-5.85,5.15l-2.09,5.44a2.25,2.25,0,0,1-.36-.06,6.74,6.74,0,0,1-1.67-.58,5.19,5.19,0,0,0,.76-1.89,6.13,6.13,0,0,0-1.17-4.62,3.23,3.23,0,0,0-2.28-1.36c-1.81-.12-3.35,1.63-3.66,3.34a5.67,5.67,0,0,0,1.6,4.57,7.08,7.08,0,0,1-4,.53,6.69,6.69,0,0,1-2-.72,3.58,3.58,0,0,0,1.06-1.47,5.11,5.11,0,0,0-.68-4.47A3.59,3.59,0,0,0,120,78.56c-1.76-.06-3.29,1.67-3.6,3.32A4.85,4.85,0,0,0,117,85a7.53,7.53,0,0,1-4.53,0c1.14-2,1.7-4.38.36-6a4.45,4.45,0,0,0-3.69-1.34,3.57,3.57,0,0,0-2.89,1.51,3.43,3.43,0,0,0-.19,2.94,9.28,9.28,0,0,0,2.1,3.44A6.79,6.79,0,0,1,103.51,87a8.37,8.37,0,0,1-1.7-.36,5,5,0,0,0,1-2.08,6.09,6.09,0,0,0-1.26-4.75,3,3,0,0,0-2.28-1.24A2.87,2.87,0,0,0,97,79.74a6.21,6.21,0,0,0-1.31,4.78,4.94,4.94,0,0,0,.89,2.1,8.34,8.34,0,0,1-3.4.37,7.46,7.46,0,0,1-2.28-.65,7.06,7.06,0,0,0,1.43-6.83,4.83,4.83,0,0,0-3.07-3,5.17,5.17,0,0,0-6,3.08,5.87,5.87,0,0,0,1,4.89A12.94,12.94,0,0,0,88,88.18L104,122.5v51.76l3-.25V121.83l-14.85-32c.23,0,.47.08.71.11a11.52,11.52,0,0,0,6.35-1.21A11.35,11.35,0,0,0,103.23,90a9.57,9.57,0,0,0,7.36-2.46l.47.23c2.53,1.14,4.89.61,7.18.1l.88-.2a9.81,9.81,0,0,0,11.79.94,10.39,10.39,0,0,0,3.19,1.34l-11.46,29.86V173c1.11-.05,2.09-.1,3-.17V120.34Zm2.86-7.45c.74-2.3,2-3.2,2.4-3.2h0a3.09,3.09,0,0,1,.89,2.6,5.32,5.32,0,0,1-2.33,3.4,9.16,9.16,0,0,1-2.56,1.32Zm-51.75,2a9.4,9.4,0,0,1-1.55-1.81,3.34,3.34,0,0,1-.73-2.33,2.31,2.31,0,0,1,2-1.18,1.14,1.14,0,0,1,.37.05c.64.18,1,1,1.09,1.21A4.28,4.28,0,0,1,88.37,84.67ZM99.82,84a2.3,2.3,0,0,1-.64,1.12A2.26,2.26,0,0,1,98.61,84a3.35,3.35,0,0,1,.6-2.29A3.18,3.18,0,0,1,99.82,84ZM110,83.25a4.72,4.72,0,0,1-1.22-2.39,2,2,0,0,1,1.71.16C110.74,81.27,110.56,82.2,110,83.25Zm10.63.48a1.2,1.2,0,0,1-.64.51l-.07-.1a2.49,2.49,0,0,1-.57-1.7,1.51,1.51,0,0,1,.55-.85A2.44,2.44,0,0,1,120.67,83.73ZM131,84a1.93,1.93,0,0,1-.22.59,3,3,0,0,1-1-2.16,1.51,1.51,0,0,1,.49-.81A3.18,3.18,0,0,1,131,84Z"/></g></g></svg>