<svg xmlns="http://www.w3.org/2000/svg" width="479.064" height="479.059" viewBox="0 0 479.064 479.059"><g transform="translate(0 -0.003)"><path d="M145.324,333.741a14.971,14.971,0,1,1-21.172,0,14.972,14.972,0,0,1,21.172,0" transform="translate(3.951 10.951)" fill="#fff"/><path d="M205.207,333.741a14.971,14.971,0,1,1-21.172,0,14.972,14.972,0,0,1,21.172,0" transform="translate(5.951 10.951)" fill="#fff"/><path d="M265.089,333.741a14.971,14.971,0,1,1-21.172,0,14.972,14.972,0,0,1,21.172,0" transform="translate(7.951 10.951)" fill="#fff"/><path d="M447.059,276.184c-5.395-5.395-5.6-14.05-.453-20.585,21.228-27,32.456-58.435,32.456-90.92C479.062,73.876,391.753,0,284.445,0S89.827,73.877,89.827,164.679c0,3.637.594,7.133.912,10.694C36.31,204.6,0,255.917,0,314.385,0,346.87,11.231,378.3,32.459,405.3c5.146,6.535,4.941,15.19-.453,20.585L4.389,453.506a14.97,14.97,0,0,0,10.584,25.556H194.62c101.336,0,184.74-65.9,193.72-149.706h75.75A14.97,14.97,0,0,0,474.674,303.8ZM194.621,449.12H51.114l2.061-2.061C69.213,431.036,70.412,405.115,56,386.8c-17.047-21.666-26.052-46.71-26.052-72.411,0-74.3,73.873-134.735,164.676-134.735S359.3,240.089,359.3,314.386,285.424,449.12,194.621,449.12Zm193.72-149.706c-8.98-83.8-92.384-149.706-193.72-149.706a224.242,224.242,0,0,0-74.71,12.661c1.528-73.223,74.683-132.425,164.534-132.425,90.8,0,164.676,60.438,164.676,134.735,0,25.7-9.006,50.745-26.052,72.411-14.415,18.318-13.216,44.239,2.822,60.262l2.061,2.061S388.341,299.415,388.341,299.414Z" fill="#fff"/></g></svg>