<svg xmlns="http://www.w3.org/2000/svg" xmlns:xlink="http://www.w3.org/1999/xlink" viewBox="0 0 282.75 249.77"><defs><style>.cls-1{fill:url(#Unbenannter_Verlauf_268);}</style><linearGradient id="Unbenannter_Verlauf_268" y1="124.88" x2="282.75" y2="124.88" gradientUnits="userSpaceOnUse"><stop offset="0" stop-color="#05f"/><stop offset="1" stop-color="#0047ad"/></linearGradient></defs><title>check-icon</title><g id="Ebene_2" data-name="Ebene 2"><g id="Ebene_1-2" data-name="Ebene 1"><path class="cls-1" d="M270.4,1.91c-12.76-6.87-27,6.38-35.33,14.23C215.93,34.79,199.74,56.38,181.58,76c-20.12,21.6-38.77,43.19-59.38,64.29-11.78,11.78-24.54,24.54-32.39,39.26-17.66-17.18-32.88-35.83-52.51-51C23.07,117.73-.48,109.87,0,135.88c1,33.86,30.91,70.18,53,93.24,9.32,9.82,21.59,20.12,35.82,20.61,17.18,1,34.84-19.63,45.15-30.91,18.16-19.63,32.88-41.72,49.56-61.84,21.59-26.49,43.68-52.5,64.78-79.49C261.57,60.8,303.28,19.58,270.4,1.91Zm-248.8,132a3.7,3.7,0,0,0-2,.49,23.78,23.78,0,0,1-5.4-2h0Q16.45,131,21.6,133.92Z"/></g></g></svg>