<svg xmlns="http://www.w3.org/2000/svg" xmlns:xlink="http://www.w3.org/1999/xlink" viewBox="0 0 230 230"><defs><style>.cls-1{fill:none;}.cls-2{fill:url(#Unbenannter_Verlauf_287);}.cls-3{fill:url(#Unbenannter_Verlauf_295);}.cls-4{stroke-miterlimit:10;stroke-width:2px;opacity:0.5;fill:url(#Unbenannter_Verlauf_303);stroke:url(#Unbenannter_Verlauf_306);}.cls-5{fill:url(#Unbenannter_Verlauf_320);}.cls-6{fill:url(#Unbenannter_Verlauf_314);}</style><radialGradient id="Unbenannter_Verlauf_287" cx="115" cy="194.9" r="75.65" gradientTransform="translate(0 160.69) scale(1 0.18)" gradientUnits="userSpaceOnUse"><stop offset="0" stop-color="#989898"/><stop offset="0.33" stop-color="#989898" stop-opacity="0.5"/><stop offset="0.6" stop-color="#989898" stop-opacity="0.3"/><stop offset="1" stop-color="#989898" stop-opacity="0"/></radialGradient><linearGradient id="Unbenannter_Verlauf_295" x1="178.19" y1="184.89" x2="56.82" y2="43.53" gradientUnits="userSpaceOnUse"><stop offset="0" stop-color="#4d86f6"/><stop offset="0.24" stop-color="#4d86f6"/><stop offset="0.32" stop-color="#417bf6"/><stop offset="0.48" stop-color="#215ef4"/><stop offset="0.5" stop-color="#1b59f4"/><stop offset="0.76" stop-color="#1b59f4"/><stop offset="1" stop-color="#1b52c8"/></linearGradient><radialGradient id="Unbenannter_Verlauf_303" cx="115" cy="111.29" r="68.77" gradientUnits="userSpaceOnUse"><stop offset="0.85" stop-color="#1b52c8"/><stop offset="1" stop-color="#1746a1"/></radialGradient><linearGradient id="Unbenannter_Verlauf_306" x1="45.23" y1="111.29" x2="184.77" y2="111.29" gradientUnits="userSpaceOnUse"><stop offset="0" stop-color="#1746a1"/><stop offset="1" stop-color="#4d86f6"/></linearGradient><linearGradient id="Unbenannter_Verlauf_320" x1="114.17" y1="64.67" x2="116.26" y2="159.92" gradientUnits="userSpaceOnUse"><stop offset="0" stop-color="#4d86f6"/><stop offset="0.42" stop-color="#6d9ff7"/><stop offset="1" stop-color="#4d86f6"/></linearGradient><linearGradient id="Unbenannter_Verlauf_314" x1="178.19" y1="185.56" x2="56.82" y2="44.21" gradientUnits="userSpaceOnUse"><stop offset="0" stop-color="#fff" stop-opacity="0"/><stop offset="0.54" stop-color="#fff" stop-opacity="0"/><stop offset="0.6" stop-color="#fff" stop-opacity="0.2"/><stop offset="1" stop-color="#fff" stop-opacity="0.2"/></linearGradient></defs><title>money-icon_2</title><g id="Ebene_2" data-name="Ebene 2"><g id="Ebene_1-2" data-name="Ebene 1"><rect class="cls-1" width="230" height="230"/><ellipse class="cls-2" cx="115" cy="194.9" rx="79.56" ry="12.81"/><circle class="cls-3" cx="115" cy="111.29" r="89"/><circle class="cls-4" cx="115" cy="111.29" r="68.77"/><path class="cls-5" d="M84.2,107.19V98.56h41.21v8.63Zm0,16.62v-8.53h41.21v8.53Zm38.4,26.75A26.47,26.47,0,0,1,107,145.92a29,29,0,0,1-10.08-13.48q-3.51-8.85-3.51-21.26t3.51-21.09A29.08,29.08,0,0,1,107,76.66,26.47,26.47,0,0,1,122.6,72a34.85,34.85,0,0,1,12.63,2.38,30.75,30.75,0,0,1,10.57,6.69l-4.75,10.14a40.24,40.24,0,0,0-9.27-6.15,20.61,20.61,0,0,0-8.53-2q-8.19,0-12.08,6.86t-3.88,21.19q0,14.56,3.83,21.42t12.13,6.85a20.75,20.75,0,0,0,8.53-1.94,40.9,40.9,0,0,0,9.27-6.15l4.75,10.14a31,31,0,0,1-10.63,6.63A34.72,34.72,0,0,1,122.6,150.56Z"/><circle class="cls-6" cx="115" cy="111.97" r="89"/></g></g></svg>